<?xml version="1.0" standalone="no"?><!DOCTYPE svg PUBLIC "-//W3C//DTD SVG 1.1//EN" "http://www.w3.org/Graphics/SVG/1.1/DTD/svg11.dtd"><svg t="1607533024177" class="icon" viewBox="0 0 1024 1024" version="1.1" xmlns="http://www.w3.org/2000/svg" p-id="5727" xmlns:xlink="http://www.w3.org/1999/xlink" width="32" height="32"><defs><style type="text/css"></style></defs><path d="M492.752593 492.468148H310.613333c-100.408889 0-182.139259-81.73037-182.139259-182.139259s81.73037-182.139259 182.139259-182.139259 182.139259 81.73037 182.13926 182.139259v182.139259zM310.613333 170.761481c-76.894815 0-139.472593 62.577778-139.472592 139.472593s62.577778 139.472593 139.472592 139.472593h139.472593V310.234074c0-76.894815-62.577778-139.472593-139.472593-139.472593zM714.24 492.468148H532.100741V310.234074c0-100.408889 81.73037-182.139259 182.139259-182.139259s182.139259 81.73037 182.139259 182.139259-81.635556 182.234074-182.139259 182.234074z m-139.472593-42.666667h139.472593c76.894815 0 139.472593-62.577778 139.472593-139.472592s-62.577778-139.472593-139.472593-139.472593-139.472593 62.577778-139.472593 139.472593v139.472592zM310.613333 896.094815c-100.408889 0-182.139259-81.73037-182.139259-182.139259s81.73037-182.139259 182.139259-182.13926h182.13926V713.955556c0 100.408889-81.73037 182.139259-182.13926 182.139259z m0-321.611852c-76.894815 0-139.472593 62.577778-139.472592 139.472593s62.577778 139.472593 139.472592 139.472592 139.472593-62.577778 139.472593-139.472592V574.482963H310.613333zM714.24 896.094815c-100.408889 0-182.139259-81.73037-182.139259-182.139259V531.816296h182.139259c100.408889 0 182.139259 81.73037 182.139259 182.13926s-81.635556 182.139259-182.139259 182.139259zM574.767407 574.482963V713.955556c0 76.894815 62.577778 139.472593 139.472593 139.472592s139.472593-62.577778 139.472593-139.472592-62.577778-139.472593-139.472593-139.472593H574.767407z" p-id="5728"></path></svg>