<?xml version="1.0" standalone="no"?><!DOCTYPE svg PUBLIC "-//W3C//DTD SVG 1.1//EN" "http://www.w3.org/Graphics/SVG/1.1/DTD/svg11.dtd"><svg t="1607527729124" class="icon" viewBox="0 0 1024 1024" version="1.1" xmlns="http://www.w3.org/2000/svg" p-id="1163" xmlns:xlink="http://www.w3.org/1999/xlink" width="200" height="200"><defs><style type="text/css"></style></defs><path d="M917.333333 789.12a21.333333 21.333333 0 0 1 21.333334 21.333333v42.666667a21.333333 21.333333 0 0 1-21.333334 21.333333h-810.666666a21.333333 21.333333 0 0 1-21.333334-21.333333v-42.666667a21.333333 21.333333 0 0 1 21.333334-21.333333h810.666666zM255.701333 380.16L256 383.786667v256a21.333333 21.333333 0 0 1-33.621333 17.493333l-2.816-2.389333-128-128a21.333333 21.333333 0 0 1-2.432-27.221334l2.432-2.986666 128-128a21.333333 21.333333 0 0 1 36.138666 11.434666zM917.333333 575.786667a21.333333 21.333333 0 0 1 21.333334 21.333333v42.666667a21.333333 21.333333 0 0 1-21.333334 21.333333h-512a21.333333 21.333333 0 0 1-21.333333-21.333333v-42.666667a21.333333 21.333333 0 0 1 21.333333-21.333333h512z m0-213.333334a21.333333 21.333333 0 0 1 21.333334 21.333334v42.666666a21.333333 21.333333 0 0 1-21.333334 21.333334h-512a21.333333 21.333333 0 0 1-21.333333-21.333334v-42.666666a21.333333 21.333333 0 0 1 21.333333-21.333334h512z m0-213.333333a21.333333 21.333333 0 0 1 21.333334 21.333333v42.666667a21.333333 21.333333 0 0 1-21.333334 21.333333h-810.666666a21.333333 21.333333 0 0 1-21.333334-21.333333v-42.666667a21.333333 21.333333 0 0 1 21.333334-21.333333h810.666666z" p-id="1164"></path></svg>