<?xml version="1.0" standalone="no"?><!DOCTYPE svg PUBLIC "-//W3C//DTD SVG 1.1//EN" "http://www.w3.org/Graphics/SVG/1.1/DTD/svg11.dtd"><svg t="1617441436652" class="icon" viewBox="0 0 1024 1024" version="1.1" xmlns="http://www.w3.org/2000/svg" p-id="4843" xmlns:xlink="http://www.w3.org/1999/xlink" width="200" height="200"><defs><style type="text/css"></style></defs><path d="M204.096 118.592c10.496 10.24 14.848 23.744 13.12 40.704v700.032c-0.576 16.896-5.824 30.336-15.744 40.256-9.92 9.92-23.36 15.168-40.256 15.744-14.592-0.576-27.456-5.824-38.528-15.744-11.072-9.92-16.896-23.36-17.472-40.256V159.296c0.576-14.592 6.72-27.392 18.368-38.528 11.648-11.072 25.92-16.896 42.88-17.472 14.592 0 27.136 5.056 37.632 15.296z m685.568 17.472c21.312 21.312 32.256 47.68 32.832 79.168v593.28c-0.576 31.488-11.52 57.856-32.832 79.168s-47.68 32.256-79.168 32.832H351.104c-16.896 0-30.336-5.12-40.256-15.296-9.92-10.24-15.168-23.744-15.744-40.704V159.296c0.576-16.896 5.824-30.464 15.744-40.704 9.92-10.176 23.296-15.296 40.256-15.296h459.392c31.488 0.576 57.92 11.52 79.168 32.768z m-119.872 567.04c4.928-6.72 3.648-14.464-3.968-23.168-5.824-22.72-17.472-41.408-35.008-56-17.472-14.592-37.632-22.144-60.352-22.72h-11.392c-8.192 5.824-17.664 10.24-28.416 13.12-10.816 2.944-21.76 4.352-32.832 4.352s-21.44-1.472-31.04-4.352c-9.6-2.944-19.712-7.296-30.208-13.12h-11.392c-22.72 0.576-42.88 8.192-60.352 22.72-17.472 14.592-29.184 33.28-35.008 56-2.368 8.768-1.344 16.512 3.072 23.168 4.352 6.72 10.944 10.048 19.712 10.048h296.64c8.768 0 15.616-3.328 20.544-10.048z m-250.24-332.096c-21.888 20.992-33.088 47.552-33.664 79.616 0.576 34.432 11.84 63.296 33.664 86.656 21.888 23.36 49.728 35.328 83.584 35.904 34.432-0.576 62.592-11.648 84.416-33.28 21.888-21.568 33.088-49.6 33.664-83.968-0.576-34.432-11.84-62.4-33.664-83.968-21.888-21.568-50.048-32.64-84.416-33.28-33.856 0.512-61.696 11.328-83.584 32.32z" p-id="4844"></path></svg>