<?xml version="1.0" standalone="no"?><!DOCTYPE svg PUBLIC "-//W3C//DTD SVG 1.1//EN" "http://www.w3.org/Graphics/SVG/1.1/DTD/svg11.dtd"><svg t="1617441744203" class="icon" viewBox="0 0 1024 1024" version="1.1" xmlns="http://www.w3.org/2000/svg" p-id="6112" xmlns:xlink="http://www.w3.org/1999/xlink" width="200" height="200"><defs><style type="text/css"></style></defs><path d="M832 128 192 128C153.6 128 128 160 128 204.8l0 614.4C128 864 153.6 896 192 896l640 0c38.4 0 64-32 64-76.8L896 204.8C896 160 870.4 128 832 128zM620.8 288l0 153.6L396.8 441.6 396.8 288 620.8 288zM396.8 665.6l0-192 224 0 0 192L396.8 665.6zM620.8 697.6l0 160L396.8 857.6l0-160L620.8 697.6zM160 288l204.8 0 0 153.6L160 441.6 160 288zM160 473.6l204.8 0 0 192L160 665.6 160 473.6zM160 780.8l0-83.2 204.8 0 0 160L224 857.6C185.6 857.6 160 825.6 160 780.8zM864 780.8c0 44.8-25.6 76.8-64 76.8l-147.2 0 0-160 211.2 0L864 780.8zM864 665.6l-211.2 0 0-192 211.2 0L864 665.6zM864 441.6l-211.2 0L652.8 288l211.2 0L864 441.6z" p-id="6113"></path></svg>