<?xml version="1.0" standalone="no"?><!DOCTYPE svg PUBLIC "-//W3C//DTD SVG 1.1//EN" "http://www.w3.org/Graphics/SVG/1.1/DTD/svg11.dtd"><svg t="1607532637690" class="icon" viewBox="0 0 1024 1024" version="1.1" xmlns="http://www.w3.org/2000/svg" p-id="3099" xmlns:xlink="http://www.w3.org/1999/xlink" width="32" height="32"><defs><style type="text/css"></style></defs><path d="M513 956.3c-247.7 0-448-200.3-448-448S265.3 66.2 513 66.2s448 200.3 448 448-200.3 442.1-448 442.1z m0-830.9c-212.2 0-388.8 170.7-388.8 388.8C124.2 726.3 294.9 903 513 903c212.2 0 388.8-170.7 388.8-388.8S725.2 125.4 513 125.4z m0 430.2c-94.2 0-170.7-76.5-170.7-170.7S418.8 207.8 513 207.8s170.7 76.5 170.7 170.7S607.2 555.6 513 555.6z m0-289.1c-64.6 0-112 52.8-112 112s47.4 117.9 112 117.9 112-52.8 112-112-47.4-117.9-112-117.9z m0 689.8c-135.7 0-259-58.7-341.9-158.9l-11.8-17.8 11.8-17.8c76.5-117.9 206.2-188.5 347.8-188.5 135.7 0 265 64.6 341.9 182.6l11.8 17.8-11.8 17.8C778 897.1 648.7 956.3 513 956.3zM230.3 773.2C300.9 849.7 406.9 897 513 897c112 0 218.1-47.4 288.6-129.8-70.5-88.2-170.7-135.6-282.7-135.6s-218.1 53.3-288.6 141.6z" p-id="3100"></path></svg>